SplineFontDB: 3.0
FontName: Hellspace
FullName: Hellspace
FamilyName: Hellspace
Weight: Medium
Copyright: Created with FontForge 2.0 (http://fontforge.sf.net)
UComments: "2018-3-11: Created." 
Version: 001.000
ItalicAngle: 0
UnderlinePosition: -102.4
UnderlineWidth: 51.2
Ascent: 819
Descent: 205
LayerCount: 2
Layer: 0 0 "Back"  1
Layer: 1 0 "Fore"  0
XUID: [1021 624 1477038033 9729758]
FSType: 0
OS2Version: 0
OS2_WeightWidthSlopeOnly: 0
OS2_UseTypoMetrics: 1
CreationTime: 1520801492
ModificationTime: 1520807152
OS2TypoAscent: 0
OS2TypoAOffset: 1
OS2TypoDescent: 0
OS2TypoDOffset: 1
OS2TypoLinegap: 92
OS2WinAscent: 0
OS2WinAOffset: 1
OS2WinDescent: 0
OS2WinDOffset: 1
HheadAscent: 0
HheadAOffset: 1
HheadDescent: 0
HheadDOffset: 1
MarkAttachClasses: 1
DEI: 91125
Encoding: ISO8859-1
UnicodeInterp: none
NameList: Adobe Glyph List
DisplaySize: -24
AntiAlias: 1
FitToEm: 1
WinInfo: 0 28 6
BeginPrivate: 0
EndPrivate
BeginChars: 256 256

StartChar: A
Encoding: 65 65 0
Width: 517
VWidth: 0
Flags: HW
LayerCount: 2
Fore
SplineSet
162 107 m 25
 228 183 l 25
 178 277 l 25
 162 107 l 25
187 392 m 1
 457 -179 l 1
 328 -332 l 1
 396 -179 l 1
 250 105 l 1
 149 0 l 1
 133 -198 l 1
 1 -347 l 1
 76 -191 l 1
 127 392 l 1
 270 535 l 1
 187 392 l 1
EndSplineSet
Validated: 1
EndChar

StartChar: b
Encoding: 98 98 1
Width: 384
VWidth: 0
Flags: HW
LayerCount: 2
Fore
SplineSet
1 -365 m 5
 96 -285 l 5
 96 164 l 5
 244 238 l 5
 157 164 l 5
 158 -74 l 5
 311 -18 l 5
 317 -224 l 5
 1 -365 l 5
154 -256 m 5
 271 -205 l 5
 267 -79 l 5
 152 -124 l 5
 154 -256 l 5
EndSplineSet
Validated: 1
EndChar

StartChar: a
Encoding: 97 97 2
Width: 408
VWidth: 0
Flags: HW
LayerCount: 2
Fore
SplineSet
341 -329 m 5
 25 -189 l 5
 31 -23 l 5
 184 -80 l 5
 185 36 l 5
 33 110 l 5
 246 36 l 5
 246 -249 l 5
 341 -329 l 5
188 -221 m 5
 190 -129 l 5
 74 -84 l 5
 71 -170 l 5
 188 -221 l 5
EndSplineSet
Validated: 1
EndChar

StartChar: c
Encoding: 99 99 3
Width: 320
VWidth: 0
Flags: HW
LayerCount: 2
Fore
SplineSet
71 -211 m 1
 256 -193 l 1
 1 -308 l 1
 1 131 l 1
 254 29 l 1
 71 53 l 1
 71 -211 l 1
EndSplineSet
Validated: 1
EndChar

StartChar: d
Encoding: 100 100 4
Width: 384
VWidth: 0
Flags: HW
LayerCount: 2
Fore
SplineSet
317 -374 m 5
 1 -233 l 5
 7 -27 l 5
 160 -83 l 5
 161 155 l 5
 73 229 l 5
 221 155 l 5
 221 -294 l 5
 317 -374 l 5
164 -265 m 5
 166 -133 l 5
 50 -88 l 5
 47 -214 l 5
 164 -265 l 5
EndSplineSet
Validated: 1
EndChar

StartChar: e
Encoding: 101 101 5
Width: 412
VWidth: 0
Flags: HW
LayerCount: 2
Fore
SplineSet
1 132 m 1
 317 -8 l 1
 311 -174 l 1
 158 -117 l 1
 157 -198 l 1
 345 -307 l 1
 96 -233 l 1
 96 52 l 1
 1 132 l 1
154 24 m 1
 152 -68 l 1
 267 -113 l 1
 271 -27 l 1
 154 24 l 1
EndSplineSet
Validated: 1
EndChar

StartChar: f
Encoding: 102 102 6
Width: 429
VWidth: 0
Flags: HWO
LayerCount: 2
Fore
SplineSet
1 262 m 1
 386 113 l 1
 162 165 l 1
 160 51 l 1
 339 -4 l 1
 158 13 l 1
 157 -396 l 1
 244 -471 l 1
 96 -396 l 1
 96 182 l 1
 1 262 l 1
EndSplineSet
Validated: 1
EndChar

StartChar: g
Encoding: 103 103 7
Width: 384
VWidth: 0
Flags: HW
LayerCount: 2
Fore
SplineSet
317 132 m 1
 221 52 l 1
 221 -437 l 1
 4 -532 l 1
 161 -437 l 1
 160 -158 l 1
 7 -214 l 1
 1 -8 l 1
 317 132 l 1
164 24 m 1
 47 -27 l 1
 50 -154 l 1
 166 -109 l 1
 164 24 l 1
EndSplineSet
Validated: 1
EndChar

StartChar: h
Encoding: 104 104 8
Width: 456
VWidth: 0
Flags: HW
LayerCount: 2
Fore
SplineSet
84 151 m 5
 1 233 l 5
 144 151 l 5
 144 -1 l 5
 313 -63 l 5
 314 -288 l 5
 389 -378 l 5
 256 -292 l 5
 253 -117 l 5
 144 -72 l 5
 144 -281 l 5
 212 -369 l 5
 84 -281 l 5
 84 151 l 5
EndSplineSet
Validated: 1
EndChar

StartChar: i
Encoding: 105 105 9
Width: 312
VWidth: 0
Flags: HW
LayerCount: 2
Fore
SplineSet
184 222 m 1
 128 118 l 1
 72 222 l 1
 184 222 l 1
96 36 m 1
 1 132 l 1
 157 36 l 1
 157 -202 l 1
 245 -292 l 1
 96 -202 l 1
 96 36 l 1
EndSplineSet
Validated: 1
EndChar

StartChar: j
Encoding: 106 106 10
Width: 353
VWidth: 0
Flags: HW
LayerCount: 2
Fore
SplineSet
225 36 m 1
 130 132 l 1
 286 36 l 1
 286 -399 l 1
 1 -603 l 1
 225 -399 l 1
 225 36 l 1
EndSplineSet
Validated: 1
EndChar

StartChar: k
Encoding: 107 107 11
Width: 456
VWidth: 0
Flags: HW
LayerCount: 2
Fore
SplineSet
84 50 m 1
 1 132 l 1
 144 50 l 1
 144 -102 l 1
 383 130 l 1
 209 -126 l 1
 313 -164 l 1
 314 -389 l 1
 389 -479 l 1
 256 -393 l 1
 253 -218 l 1
 144 -173 l 1
 144 -382 l 5
 212 -470 l 5
 84 -382 l 1
 84 50 l 1
EndSplineSet
Validated: 1
EndChar

StartChar: l
Encoding: 108 108 12
Width: 312
VWidth: 0
Flags: HW
LayerCount: 2
Fore
SplineSet
96 220 m 5
 1 319 l 5
 157 220 l 5
 157 -278 l 1
 245 -370 l 1
 96 -278 l 1
 96 220 l 5
EndSplineSet
Validated: 1
EndChar

StartChar: m
Encoding: 109 109 13
Width: 507
VWidth: 0
Flags: HW
LayerCount: 2
Fore
SplineSet
98 62 m 1
 163 -289 l 5
 2 132 l 1
 440 132 l 1
 286 -287 l 5
 362 62 l 1
 244 64 l 1
 223 -285 l 5
 201 62 l 1
 98 62 l 1
EndSplineSet
Validated: 1
EndChar

StartChar: n
Encoding: 110 110 14
Width: 456
VWidth: 0
Flags: HWO
LayerCount: 2
Fore
SplineSet
84 50 m 1
 1 132 l 1
 144 50 l 1
 144 9 l 1
 313 -54 l 1
 314 -278 l 1
 389 -368 l 1
 256 -283 l 1
 253 -108 l 1
 144 -62 l 1
 144 -272 l 1
 212 -359 l 1
 84 -272 l 1
 84 50 l 1
EndSplineSet
Validated: 1
EndChar

StartChar: o
Encoding: 111 111 15
Width: 282
VWidth: 0
Flags: HW
LayerCount: 2
Fore
SplineSet
1 132 m 1
 215 54 l 1
 215 -190 l 1
 1 -287 l 1
 1 132 l 1
55 41 m 1
 55 -182 l 1
 162 -134 l 1
 162 2 l 1
 55 41 l 1
EndSplineSet
Validated: 1
EndChar

StartChar: p
Encoding: 112 112 16
Width: 384
VWidth: 0
Flags: HW
LayerCount: 2
Fore
SplineSet
1 132 m 1
 317 -8 l 1
 311 -214 l 1
 158 -158 l 1
 157 -437 l 1
 9 -532 l 1
 96 -437 l 1
 96 52 l 1
 1 132 l 1
154 24 m 1
 152 -109 l 1
 267 -154 l 1
 271 -27 l 1
 154 24 l 1
EndSplineSet
Validated: 1
EndChar

StartChar: q
Encoding: 113 113 17
Width: 415
VWidth: 0
Flags: HW
LayerCount: 2
Fore
SplineSet
317 132 m 1
 221 52 l 1
 221 -437 l 1
 348 -532 l 1
 161 -437 l 1
 160 -158 l 1
 7 -214 l 1
 1 -8 l 1
 317 132 l 1
164 24 m 1
 47 -27 l 1
 50 -154 l 1
 166 -109 l 1
 164 24 l 1
EndSplineSet
Validated: 1
EndChar

StartChar: r
Encoding: 114 114 18
Width: 380
VWidth: 0
Flags: HW
LayerCount: 2
Fore
SplineSet
84 50 m 1
 1 132 l 1
 144 50 l 1
 144 9 l 1
 313 -54 l 1
 144 -62 l 1
 144 -272 l 5
 212 -359 l 5
 84 -272 l 1
 84 50 l 1
EndSplineSet
Validated: 1
EndChar

StartChar: s
Encoding: 115 115 19
Width: 310
VWidth: 0
Flags: HWO
LayerCount: 2
Fore
SplineSet
59 -133 m 1
 215 -15 l 1
 219 -375 l 1
 52 -264 l 1
 159 -285 l 1
 159 -104 l 1
 1 -230 l 1
 1 131 l 1
 160 22 l 1
 59 53 l 1
 59 -133 l 1
EndSplineSet
Validated: 1
EndChar

StartChar: t
Encoding: 116 116 20
Width: 414
VWidth: 0
Flags: HWO
LayerCount: 2
Fore
SplineSet
96 198 m 1
 1 297 l 1
 157 198 l 1
 157 74 l 1
 380 43 l 1
 157 5 l 1
 157 -330 l 1
 245 -422 l 1
 96 -330 l 1
 96 198 l 1
EndSplineSet
Validated: 1
EndChar

StartChar: u
Encoding: 117 117 21
Width: 456
VWidth: 0
Flags: HW
LayerCount: 2
Fore
SplineSet
306 -286 m 1
 389 -368 l 1
 245 -286 l 1
 245 -245 l 1
 76 -182 l 1
 76 43 l 1
 1 132 l 1
 133 47 l 1
 137 -128 l 1
 245 -173 l 1
 245 36 l 5
 177 123 l 5
 306 36 l 1
 306 -286 l 1
EndSplineSet
Validated: 1
EndChar

StartChar: v
Encoding: 118 118 22
Width: 373
VWidth: 0
Flags: HW
LayerCount: 2
Fore
SplineSet
187 -290 m 1
 270 -372 l 1
 127 -290 l 1
 76 43 l 1
 1 132 l 1
 133 47 l 1
 172 -168 l 1
 245 36 l 1
 177 123 l 1
 306 36 l 1
 187 -290 l 1
EndSplineSet
Validated: 1
EndChar

StartChar: w
Encoding: 119 119 23
Width: 539
VWidth: 0
Flags: HW
LayerCount: 2
Fore
SplineSet
1 132 m 1
 133 47 l 1
 172 -168 l 1
 245 41 l 1
 171 129 l 1
 304 43 l 1
 342 -172 l 1
 412 44 l 1
 344 132 l 1
 472 44 l 1
 357 -294 l 1
 440 -376 l 1
 297 -294 l 1
 264 -78 l 1
 187 -290 l 1
 270 -372 l 1
 127 -290 l 1
 76 43 l 1
 1 132 l 1
EndSplineSet
Validated: 1
EndChar

StartChar: x
Encoding: 120 120 24
Width: 480
VWidth: 0
Flags: HW
LayerCount: 2
Fore
SplineSet
66 227 m 5
 222 128 l 5
 222 -61 l 5
 380 44 l 5
 409 178 l 5
 413 -7 l 5
 222 -134 l 5
 222 -326 l 5
 310 -418 l 5
 162 -326 l 5
 162 -174 l 5
 34 -258 l 5
 6 -382 l 5
 1 -208 l 5
 162 -101 l 5
 162 128 l 5
 66 227 l 5
EndSplineSet
Validated: 1
EndChar

StartChar: y
Encoding: 121 121 25
Width: 484
VWidth: 0
Flags: HW
LayerCount: 2
Fore
SplineSet
0 9 m 1
 185 -2 l 1
 277 -167 l 1
 364 1 l 1
 324 133 l 1
 417 -27 l 1
 208 -430 l 1
 244 -552 l 1
 154 -402 l 1
 243 -232 l 1
 132 -31 l 1
 0 9 l 1
EndSplineSet
Validated: 1
EndChar

StartChar: z
Encoding: 122 122 26
Width: 440
VWidth: 0
Flags: HW
LayerCount: 2
Fore
SplineSet
258 74 m 5
 80 74 l 5
 111 -27 l 5
 2 132 l 5
 363 132 l 5
 119 -189 l 5
 284 -189 l 5
 262 -83 l 5
 373 -250 l 5
 5 -250 l 5
 258 74 l 5
EndSplineSet
Validated: 1
EndChar

StartChar: B
Encoding: 66 66 27
Width: 418
VWidth: 0
Flags: HW
LayerCount: 2
Fore
SplineSet
154 18 m 1
 271 107 l 1
 267 329 l 1
 152 250 l 1
 154 18 l 1
302 365 m 1
 312 51 l 1
 379 -221 l 1
 1 -503 l 1
 96 -363 l 1
 96 286 l 1
 380 510 l 1
 302 365 l 1
154 -314 m 1
 304 -205 l 1
 267 -3 l 1
 152 -82 l 1
 154 -314 l 1
EndSplineSet
Validated: 1
EndChar

StartChar: C
Encoding: 67 67 28
Width: 316
VWidth: 0
Flags: HW
LayerCount: 2
Fore
SplineSet
71 -50 m 1
 215 65 l 1
 1 -219 l 1
 1 549 l 1
 213 280 l 1
 71 413 l 1
 71 -50 l 1
EndSplineSet
Validated: 1
EndChar

StartChar: D
Encoding: 68 68 29
Width: 418
VWidth: 0
Flags: HW
LayerCount: 2
Fore
SplineSet
317 -503 m 1
 1 -258 l 1
 7 103 l 1
 160 4 l 1
 161 422 l 1
 73 551 l 1
 221 422 l 1
 221 -363 l 1
 317 -503 l 1
164 -314 m 1
 166 -82 l 1
 50 -3 l 1
 47 -225 l 1
 164 -314 l 1
EndSplineSet
Validated: 1
EndChar

StartChar: E
Encoding: 69 69 30
Width: 542
VWidth: 0
Flags: HW
LayerCount: 2
Fore
SplineSet
123 -24 m 1
 474 98 l 1
 0 -203 l 1
 0 616 l 1
 471 328 l 1
 123 470 l 1
 122 249 l 1
 467 210 l 1
 123 169 l 1
 123 -24 l 1
EndSplineSet
Validated: 1
EndChar

StartChar: F
Encoding: 70 70 31
Width: 463
VWidth: 0
Flags: HW
LayerCount: 2
Fore
SplineSet
1 551 m 1
 362 291 l 1
 162 381 l 1
 160 182 l 1
 315 88 l 1
 158 115 l 1
 157 -374 l 1
 244 -503 l 1
 96 -374 l 1
 96 411 l 1
 1 551 l 1
EndSplineSet
Validated: 1
EndChar

StartChar: G
Encoding: 71 71 32
Width: 418
VWidth: 0
Flags: HW
LayerCount: 2
Fore
SplineSet
317 551 m 1
 221 411 l 1
 221 -445 l 1
 4 -611 l 1
 161 -445 l 1
 160 43 l 1
 7 -55 l 1
 1 306 l 1
 317 551 l 1
164 362 m 1
 47 273 l 1
 50 51 l 1
 166 130 l 1
 164 362 l 1
EndSplineSet
Validated: 1
EndChar

StartChar: H
Encoding: 72 72 33
Width: 490
VWidth: 0
Flags: HW
LayerCount: 2
Fore
SplineSet
84 408 m 1
 1 551 l 1
 144 408 l 1
 144 142 l 1
 336 59 l 1
 334 418 l 1
 234 555 l 1
 390 418 l 1
 397 -361 l 1
 472 -518 l 1
 339 -368 l 1
 336 -62 l 1
 144 17 l 1
 144 -349 l 1
 212 -502 l 1
 84 -349 l 1
 84 408 l 1
EndSplineSet
Validated: 1
EndChar

StartChar: I
Encoding: 73 73 34
Width: 346
VWidth: 0
Flags: HW
LayerCount: 2
Fore
SplineSet
96 382 m 1
 1 551 l 1
 157 382 l 1
 157 -203 l 5
 245 -360 l 5
 96 -203 l 5
 96 382 l 1
EndSplineSet
Validated: 1
EndChar

StartChar: J
Encoding: 74 74 35
Width: 387
VWidth: 0
Flags: HW
LayerCount: 2
Fore
SplineSet
225 382 m 1
 130 551 l 1
 286 382 l 1
 286 -378 l 1
 1 -735 l 1
 225 -378 l 1
 225 382 l 1
EndSplineSet
Validated: 1
EndChar

StartChar: K
Encoding: 75 75 36
Width: 490
VWidth: 0
Flags: HW
LayerCount: 2
Fore
SplineSet
84 408 m 1
 1 551 l 1
 144 408 l 1
 144 142 l 1
 383 548 l 1
 209 100 l 1
 313 33 l 1
 314 -361 l 1
 389 -518 l 1
 256 -368 l 1
 253 -62 l 1
 144 17 l 1
 144 -349 l 5
 212 -502 l 5
 84 -349 l 1
 84 408 l 1
EndSplineSet
Validated: 1
EndChar

StartChar: L
Encoding: 76 76 37
Width: 481
VWidth: 0
Flags: HW
LayerCount: 2
Fore
SplineSet
96 378 m 1
 1 551 l 1
 157 378 l 1
 157 -350 l 1
 586 -577 l 1
 96 -417 l 1
 96 378 l 1
EndSplineSet
Validated: 1
EndChar

StartChar: M
Encoding: 77 77 38
Width: 542
VWidth: 0
Flags: HW
LayerCount: 2
Fore
SplineSet
98 273 m 5
 163 -320 l 5
 2 396 l 5
 440 396 l 5
 286 -317 l 5
 362 273 l 5
 244 274 l 5
 223 -313 l 5
 201 273 l 5
 98 273 l 5
EndSplineSet
Validated: 1
EndChar

StartChar: N
Encoding: 78 78 39
Width: 490
VWidth: 0
Flags: HW
LayerCount: 2
Fore
SplineSet
84 408 m 1
 1 551 l 1
 144 408 l 1
 144 336 l 1
 313 226 l 1
 314 -167 l 1
 389 -324 l 1
 256 -174 l 1
 253 131 l 1
 144 211 l 1
 144 -155 l 1
 212 -308 l 1
 84 -155 l 1
 84 408 l 1
EndSplineSet
Validated: 1
EndChar

StartChar: O
Encoding: 79 79 40
Width: 316
VWidth: 0
Flags: HW
LayerCount: 2
Fore
SplineSet
1 550 m 1
 215 414 l 1
 215 -13 l 1
 1 -182 l 1
 1 550 l 1
55 392 m 1
 55 1 l 1
 162 86 l 1
 162 324 l 1
 55 392 l 1
EndSplineSet
Validated: 1
EndChar

StartChar: P
Encoding: 80 80 41
Width: 418
VWidth: 0
Flags: HW
LayerCount: 2
Fore
SplineSet
1 551 m 1
 317 306 l 1
 311 -55 l 1
 158 43 l 1
 157 -445 l 1
 314 -611 l 1
 96 -445 l 1
 96 411 l 1
 1 551 l 1
154 362 m 1
 152 130 l 1
 267 51 l 1
 271 273 l 1
 154 362 l 1
EndSplineSet
Validated: 1
EndChar

StartChar: Q
Encoding: 81 81 42
Width: 449
VWidth: 0
Flags: HW
LayerCount: 2
Fore
SplineSet
317 551 m 1
 221 411 l 1
 221 -445 l 1
 348 -611 l 1
 161 -445 l 1
 160 43 l 1
 7 -55 l 1
 1 306 l 1
 317 551 l 1
164 362 m 1
 47 273 l 1
 50 51 l 1
 166 130 l 1
 164 362 l 1
EndSplineSet
Validated: 1
EndChar

StartChar: R
Encoding: 82 82 43
Width: 414
VWidth: 0
Flags: HW
LayerCount: 2
Fore
SplineSet
84 408 m 1
 1 551 l 1
 144 408 l 1
 144 336 l 1
 313 226 l 1
 144 211 l 1
 144 -155 l 1
 212 -308 l 1
 84 -155 l 1
 84 408 l 1
EndSplineSet
Validated: 1
EndChar

StartChar: S
Encoding: 83 83 44
Width: 367
VWidth: 0
Flags: HWO
LayerCount: 2
Fore
SplineSet
72 88 m 5
 292 294 l 5
 298 -336 l 5
 61 -142 l 5
 222 -179 l 5
 222 139 l 5
 0 -81 l 5
 0 551 l 5
 223 360 l 5
 72 414 l 5
 72 88 l 5
EndSplineSet
Validated: 1
EndChar

StartChar: T
Encoding: 84 84 45
Width: 398
VWidth: 0
Flags: HWO
LayerCount: 2
Fore
SplineSet
521 250 m 1
 157 312 l 1
 157 -417 l 1
 245 -577 l 1
 96 -417 l 1
 96 331 l 1
 -59 446 l 1
 521 250 l 1
EndSplineSet
Validated: 1
EndChar

StartChar: U
Encoding: 85 85 46
Width: 582
VWidth: 0
Flags: HW
LayerCount: 2
Fore
SplineSet
459 -180 m 1
 583 -324 l 1
 367 -180 l 1
 367 -108 l 1
 112 1 l 1
 112 395 l 1
 0 551 l 1
 198 402 l 1
 204 96 l 1
 367 17 l 1
 367 383 l 1
 265 536 l 1
 459 383 l 1
 459 -180 l 1
EndSplineSet
Validated: 1
EndChar

StartChar: V
Encoding: 86 86 47
Width: 407
VWidth: 0
Flags: HW
LayerCount: 2
Fore
SplineSet
187 -188 m 1
 270 -331 l 1
 127 -188 l 1
 76 395 l 1
 1 551 l 1
 133 402 l 1
 172 26 l 1
 245 383 l 5
 177 536 l 5
 306 383 l 1
 187 -188 l 1
EndSplineSet
Validated: 1
EndChar

StartChar: W
Encoding: 87 87 48
Width: 573
VWidth: 0
Flags: HW
LayerCount: 2
Fore
SplineSet
1 551 m 1
 133 402 l 1
 172 26 l 1
 245 391 l 1
 171 545 l 1
 304 395 l 1
 342 20 l 1
 412 398 l 1
 344 551 l 1
 472 398 l 1
 357 -194 l 1
 440 -338 l 1
 297 -194 l 1
 264 183 l 1
 187 -188 l 1
 270 -331 l 1
 127 -188 l 1
 76 395 l 1
 1 551 l 1
EndSplineSet
Validated: 1
EndChar

StartChar: X
Encoding: 88 88 49
Width: 515
VWidth: 0
Flags: HW
LayerCount: 2
Fore
SplineSet
66 551 m 1
 222 378 l 1
 222 47 l 1
 380 230 l 1
 409 465 l 1
 413 142 l 1
 222 -80 l 1
 222 -417 l 1
 310 -577 l 1
 162 -417 l 1
 162 -150 l 1
 34 -298 l 1
 6 -514 l 1
 1 -209 l 1
 162 -23 l 1
 162 378 l 1
 66 551 l 1
EndSplineSet
Validated: 1
EndChar

StartChar: Y
Encoding: 89 89 50
Width: 519
VWidth: 0
Flags: HW
LayerCount: 2
Fore
SplineSet
0 336 m 1
 185 317 l 1
 277 27 l 1
 364 321 l 1
 324 552 l 1
 417 272 l 1
 208 -433 l 1
 244 -646 l 1
 154 -384 l 1
 243 -85 l 1
 132 266 l 1
 0 336 l 1
EndSplineSet
Validated: 1
EndChar

StartChar: Z
Encoding: 90 90 51
Width: 475
VWidth: 0
Flags: HW
LayerCount: 2
Fore
SplineSet
258 202 m 5
 80 202 l 5
 111 101 l 5
 2 260 l 5
 363 260 l 5
 119 -61 l 5
 284 -61 l 5
 262 45 l 5
 373 -122 l 5
 5 -122 l 5
 258 202 l 5
EndSplineSet
Validated: 1
EndChar

StartChar: exclam
Encoding: 33 33 85
Width: 316
VWidth: 0
Flags: HW
LayerCount: 2
Fore
SplineSet
176 -97 m 1
 128 -198 l 1
 77 -97 l 1
 176 -97 l 1
97 76 m 1
 96 382 l 1
 1 551 l 1
 157 382 l 1
 158 76 l 1
 216 -20 l 1
 97 76 l 1
EndSplineSet
Validated: 1
EndChar

StartChar: quotedbl
Encoding: 34 34 86
Width: 346
VWidth: 0
Flags: HW
LayerCount: 2
Fore
SplineSet
222 269 m 5
 221 411 l 5
 150 551 l 5
 282 411 l 5
 283 269 l 5
 341 173 l 5
 222 269 l 5
73 269 m 1
 72 411 l 1
 1 551 l 1
 133 411 l 1
 134 269 l 1
 192 173 l 1
 73 269 l 1
EndSplineSet
Validated: 1
EndChar

StartChar: quotesingle
Encoding: 39 39 91
Width: 346
VWidth: 0
Flags: HW
LayerCount: 2
Fore
SplineSet
73 269 m 5
 72 411 l 5
 1 551 l 5
 133 411 l 5
 134 269 l 5
 192 173 l 5
 73 269 l 5
EndSplineSet
Validated: 1
EndChar

StartChar: comma
Encoding: 44 44 96
Width: 304
VWidth: 0
Flags: HWO
LayerCount: 2
Fore
SplineSet
96 -317 m 1
 96 -79 l 1
 202 -38 l 1
 157 -79 l 1
 157 -317 l 1
 1 -413 l 1
 96 -317 l 1
EndSplineSet
Validated: 1
EndChar

StartChar: hyphen
Encoding: 45 45 97
Width: 532
VWidth: 0
Flags: HW
LayerCount: 2
Fore
SplineSet
340 23 m 1
 438 117 l 1
 339 -38 l 1
 101 -33 l 1
 10 -120 l 1
 102 28 l 1
 340 23 l 1
EndSplineSet
Validated: 1
EndChar

StartChar: period
Encoding: 46 46 98
Width: 189
VWidth: 0
Flags: HWO
LayerCount: 2
Fore
SplineSet
123 -123 m 1
 62 -305 l 1
 0 -123 l 1
 123 -123 l 1
EndSplineSet
Validated: 1
EndChar

StartChar: colon
Encoding: 58 58 110
Width: 189
VWidth: 0
Flags: HWO
LayerCount: 2
Fore
SplineSet
123 103 m 5
 62 -79 l 5
 0 103 l 5
 123 103 l 5
123 -123 m 1
 62 -305 l 1
 0 -123 l 1
 123 -123 l 1
EndSplineSet
Validated: 1
EndChar

StartChar: semicolon
Encoding: 59 59 111
Width: 304
VWidth: 0
Flags: HWO
LayerCount: 2
Fore
SplineSet
190 161 m 5
 129 -21 l 5
 67 161 l 5
 190 161 l 5
96 -317 m 1
 96 -79 l 1
 202 -38 l 1
 157 -79 l 1
 157 -317 l 1
 1 -413 l 1
 96 -317 l 1
EndSplineSet
EndChar

